HIERARCHY
ROOT hip
{
	OFFSET 0.000000 0.000000 0.000000 
	CHANNELS 6 Xposition Yposition Zposition Xrotation Zrotation Yrotation
	JOINT abdomen
	{
		OFFSET 0.000000 3.402643 0.000000 
		CHANNELS 3 Xrotation Zrotation Yrotation
		JOINT chest
		{
			OFFSET 0.000000 8.438565 -0.680529 
			CHANNELS 3 Xrotation Zrotation Yrotation
			JOINT neck
			{
				OFFSET 0.000000 10.207942 -0.272212 
				CHANNELS 3 Xrotation Zrotation Yrotation
				JOINT head
				{
					OFFSET 0.000000 3.130431 0.000000 
					CHANNELS 3 Xrotation Zrotation Yrotation
					End Site
					{
						OFFSET 0.000000 3.130435 0.000000 
					}
				}
			}
			JOINT lCollar
			{
				OFFSET 3.470700 6.669187 -0.816635 
				CHANNELS 3 Yrotation Zrotation Xrotation
				JOINT lShldr
				{
					OFFSET 3.198488 0.000000 0.000000 
					CHANNELS 3 Zrotation Yrotation Xrotation
					JOINT lForeArm
					{
						OFFSET 10.139888 0.000000 0.000000 
						CHANNELS 3 Yrotation Zrotation Xrotation
						JOINT lHand
						{
							OFFSET 8.370511 0.000000 0.000000 
							CHANNELS 3 Zrotation Yrotation Xrotation
							End Site
							{
								OFFSET 4.083176 0.000000 0.000000 
							}
						}
					}
				}
			}
			JOINT rCollar
			{
				OFFSET -3.470700 6.669187 -0.816635 
				CHANNELS 3 Yrotation Zrotation Xrotation
				JOINT rShldr
				{
					OFFSET -3.198488 0.000000 0.000000 
					CHANNELS 3 Zrotation Yrotation Xrotation
					JOINT rForeArm
					{
						OFFSET -10.139888 0.000000 0.000000 
						CHANNELS 3 Yrotation Zrotation Xrotation
						JOINT rHand
						{
							OFFSET -8.370511 0.000000 0.000000 
							CHANNELS 3 Zrotation Yrotation Xrotation
							End Site
							{
								OFFSET -4.083176 0.000000 0.000000 
							}
						}
					}
				}
			}
		}
	}
	JOINT lThigh
	{
		OFFSET 5.308129 -1.633274 1.361059 
		CHANNELS 3 Xrotation Zrotation Yrotation
		JOINT lShin
		{
			OFFSET -2.041588 -20.007561 0.000000 
			CHANNELS 3 Xrotation Zrotation Yrotation
			JOINT lFoot
			{
				OFFSET 0.000000 -19.190928 -1.224953 
				CHANNELS 3 Xrotation Yrotation Zrotation
				End Site
				{
					OFFSET 0.000000 -2.449906 4.627600 
				}
			}
		}
	}
	JOINT rThigh
	{
		OFFSET -5.308129 -1.633274 1.361059 
		CHANNELS 3 Xrotation Zrotation Yrotation
		JOINT rShin
		{
			OFFSET 2.041588 -20.007561 0.000000 
			CHANNELS 3 Xrotation Zrotation Yrotation
			JOINT rFoot
			{
				OFFSET 0.000000 -19.190928 -1.224953 
				CHANNELS 3 Xrotation Yrotation Zrotation
				End Site
				{
					OFFSET 0.000000 -2.449906 4.627600 
				}
			}
		}
	}
}
MOTION
Frames: 15
Frame Time: 0.016667
0.210650 49.431957 2.073481 4.107250 -4.967740 48.032001 -21.353201 -0.972243 -4.432920 13.961200 3.647640 -2.462240 28.991301 4.996110 -5.590680 17.820999 4.676330 -2.197760 2.000000 -2.000000 0.000000 -86.461403 -1.443850 -166.998993 46.318802 -0.309272 0.098929 -179.917007 -179.895996 2.677930 -2.000000 2.000000 0.000000 -97.509697 -178.563995 0.133052 -45.010201 0.311505 0.096694 -0.084038 0.087105 -165.740005 -6.980414 0.310682 -3.204218 32.341316 3.006765 2.289733 -35.641315 -2.089675 -6.457733 -27.253363 3.845445 -3.026488 42.177475 -1.731841 -3.274231 -31.704481 0.575362 -2.603917 
0.227434 49.412491 3.121935 4.017750 -4.753970 47.097599 -21.241400 -0.979617 -4.229500 14.205300 3.727050 -2.367440 29.089300 5.130410 -5.544190 17.959600 4.739640 -2.179170 2.000000 -2.000000 0.000000 -86.334801 -1.191630 -167.722000 46.250500 -0.309390 0.098816 -179.917999 -179.897003 3.097850 -2.000000 2.000000 0.000000 -97.402397 -179.098999 1.062310 -45.439899 0.310777 0.097416 -0.083697 0.086482 -165.485992 -6.568737 -0.080421 -3.938462 32.800663 3.028737 2.299495 -37.533024 -0.214951 -5.415433 -27.146919 3.948722 -3.273828 42.402359 -1.735975 -3.279681 -30.831894 0.855054 -2.313854 
0.246514 49.410172 4.189574 3.811070 -4.589480 45.983101 -21.142000 -0.906216 -3.921820 14.390900 3.767210 -2.203310 29.163401 5.154060 -5.439660 18.058201 4.765840 -2.134720 2.000000 -2.000000 0.000000 -86.051903 -0.812182 -168.328003 46.113701 -0.309625 0.098590 -179.908997 -179.888000 3.410370 -2.000000 2.000000 0.000000 -97.177803 -179.546005 1.805570 -45.693802 0.310345 0.097840 -0.083268 0.085688 -165.164001 -6.434126 -0.100542 -4.124588 34.071823 2.996908 2.380806 -38.772621 2.380425 -3.379208 -26.721457 4.313811 -3.309420 42.324329 -1.732869 -3.280613 -30.278086 1.106172 -2.038962 
0.265591 49.456577 5.278975 3.584680 -4.376220 44.686401 -20.733900 -0.517983 -3.469310 15.171000 4.209920 -1.929380 29.195400 4.996510 -5.529410 18.194099 4.705890 -2.157200 2.000000 -2.000000 0.000000 -85.944603 -0.910683 -168.688995 45.693802 -0.310345 0.097893 -179.919006 -179.899002 3.859570 -2.000000 2.000000 0.000000 -97.207100 179.654007 2.119980 -45.830502 0.310111 0.098068 -0.083023 0.075464 -164.977997 -6.507833 0.075866 -3.698099 35.944191 2.931420 2.491347 -39.273647 4.217357 -1.700374 -26.088799 4.826601 -3.139889 42.010197 -1.746242 -3.264595 -29.819065 1.300586 -1.831208 
0.272754 49.503246 6.384719 3.260650 -4.182690 43.238400 -20.695299 -0.336312 -2.984030 15.180100 4.307210 -1.674110 29.496000 4.810600 -5.523420 18.388000 4.616260 -2.134420 2.000000 -2.000000 0.000000 -85.485901 -0.208772 -169.207993 45.332500 -0.310960 0.097289 -179.919998 -179.899994 4.328310 -2.000000 2.000000 0.000000 -96.943497 179.225006 2.628810 -45.693802 0.310345 0.097840 -0.083242 0.075874 -165.143997 -6.534277 0.523408 -2.853718 38.160210 2.845640 2.616649 -39.345528 5.182490 -0.692825 -25.266352 5.499830 -3.034877 41.489452 -1.769668 -3.228651 -29.246525 1.695930 -1.472917 
0.275245 49.577240 7.476421 2.888280 -4.106120 41.404202 -20.656300 -0.090603 -2.439400 15.150600 4.316720 -1.384250 29.722799 4.566020 -5.388420 18.552799 4.536840 -2.052710 2.000000 -2.000000 0.000000 -85.046799 0.629236 -169.992004 45.225101 -0.311142 0.097109 -179.919998 -179.899002 4.181830 -2.000000 2.000000 0.000000 -96.611504 178.973007 3.244650 -45.713299 0.310311 0.097873 -0.083514 0.086145 -165.348999 -6.858703 1.250042 -1.559134 41.191643 2.721529 2.788786 -39.126125 5.279119 -0.393224 -24.229044 6.422769 -2.669624 40.644512 -1.800520 -3.164202 -28.558308 2.313403 -0.966670 
0.270176 49.602631 8.519708 2.535780 -4.097560 39.681702 -20.680700 -0.031303 -2.086330 14.995700 4.062890 -1.195710 29.948400 4.332970 -5.079680 18.709101 4.514400 -1.879280 2.000000 -2.000000 0.000000 -84.519997 1.622180 -171.332001 45.068802 -0.311406 0.096846 -179.919998 -179.899002 4.230660 -2.000000 2.000000 0.000000 -96.133102 178.563995 4.105000 -45.518002 0.310644 0.097547 -0.083749 0.086578 -165.524994 -7.442494 2.049762 -0.410632 44.781719 2.566175 2.996956 -38.356194 5.130863 -0.321540 -23.266455 7.200003 -2.508260 39.927784 -1.836898 -3.136910 -27.921652 3.159951 -0.346019 
0.296789 49.609848 9.532920 2.272030 -4.303270 37.885799 -20.755800 0.325853 -1.606440 14.849200 4.022990 -0.919014 30.219400 4.109440 -4.976360 18.933001 4.452630 -1.808280 2.000000 -2.000000 0.000000 95.684700 177.404007 7.611460 44.961399 -0.311588 0.096665 -179.919998 -179.899002 4.211130 -2.000000 2.000000 0.000000 -95.996498 178.097000 4.584640 -45.146900 0.311274 0.096924 -0.083619 0.086337 -165.427994 -8.426683 2.945673 -0.014934 48.266182 2.323812 3.206014 -36.759533 3.185250 -1.661064 -22.459042 8.010094 -2.235299 39.191536 -1.859157 -3.095123 -27.306730 4.114015 0.323877 
0.358120 49.678555 10.537246 2.252330 -4.264290 36.267700 -20.769100 0.499443 -1.254660 14.771300 3.954430 -0.732079 30.350500 3.849570 -4.753400 19.098900 4.420540 -1.676050 2.000000 -2.000000 0.000000 95.811096 176.498993 6.300860 44.844200 -0.311785 0.096466 -179.919998 -179.899002 4.250190 -2.000000 2.000000 0.000000 -95.869598 177.453995 5.162340 -44.639099 0.312129 0.096066 -0.083164 0.075729 -165.085999 -9.727990 3.476016 0.023125 51.913563 2.087187 3.412738 -33.790562 2.011229 -2.201283 -21.471907 8.370353 -1.974622 38.052452 -1.896665 -3.028586 -26.532457 4.944351 0.828677 
0.407905 49.858253 11.573128 2.125470 -4.420800 34.894402 -20.703600 0.768259 -1.010680 14.820200 3.964490 -0.573434 30.437799 3.581440 -4.610550 19.263599 4.341350 -1.576320 2.000000 -2.000000 0.000000 95.869301 175.729996 4.922210 44.687901 -0.312047 0.096202 -179.919998 -179.899002 4.172070 -2.000000 2.000000 0.000000 -95.762100 176.703003 5.623120 -44.111801 0.313009 0.095166 -0.082461 0.074400 -164.548996 -11.558456 4.304240 -0.538366 55.871780 1.816889 3.591722 -30.174072 7.709117 1.831169 -20.154943 9.008244 -1.593171 36.264751 -1.949097 -2.913175 -25.644226 5.558578 1.178800 
0.440792 50.108589 12.610347 1.988790 -4.587090 33.668701 -20.589001 1.053590 -0.833833 14.829200 4.071440 -0.456491 30.424200 3.438530 -4.431990 19.390699 4.329030 -1.471630 2.000000 -2.000000 0.000000 95.810303 175.011002 3.464690 44.551201 -0.312277 0.095970 -179.919006 -179.899002 3.976750 -2.000000 2.000000 0.000000 -95.752296 175.863998 6.005980 -43.584400 0.313881 0.094259 -0.081807 0.073137 -164.041000 -13.702675 5.121768 -1.517728 59.378750 1.548143 3.777633 -23.154533 12.766634 3.912310 -18.830418 9.643547 -1.071652 34.340538 -1.989461 -2.804907 -24.931072 5.464586 1.131242 
0.479634 50.265862 13.604651 2.381130 -4.722500 32.567402 -20.629101 1.136700 -0.667792 14.927200 4.062410 -0.360711 30.231701 3.382050 -4.281250 19.312300 4.330820 -1.389640 2.000000 -2.000000 0.000000 95.868599 174.253006 2.105460 44.385201 -0.312554 0.095687 -179.917999 -179.897003 2.922070 -2.000000 2.000000 0.000000 -95.596001 175.337006 6.114650 -43.154701 0.314585 0.093514 -0.081017 0.071575 -163.416000 -15.699018 5.297760 -3.026795 61.656597 1.363604 3.876558 -17.034342 15.140326 3.828882 -18.407389 9.803158 -0.672172 33.190784 -2.022190 -2.733260 -24.240063 5.502248 1.172710 
0.537299 50.322571 14.543350 2.713440 -4.496930 31.867100 -20.541300 1.141970 -0.625925 15.005100 4.130990 -0.342236 30.062799 3.406620 -4.239230 19.273600 4.350550 -1.358170 2.000000 -2.000000 0.000000 95.809700 173.649002 1.215350 44.189899 -0.312880 0.095353 -179.917007 -179.895996 2.756060 -2.000000 2.000000 0.000000 -95.586197 174.770996 6.184360 -42.773899 0.315204 0.092849 -0.080641 0.070816 -163.113007 -16.711216 4.906844 -5.024958 62.865040 1.251048 3.941247 -16.684441 10.975730 2.400937 -18.309450 9.500729 -0.598285 33.012478 -2.036611 -2.702441 -23.629761 5.600919 1.176801 
0.584480 50.370407 15.448909 3.124120 -4.319770 31.131599 -20.531401 1.114610 -0.532025 14.916900 4.130370 -0.299739 30.073700 3.439700 -4.218440 19.312300 4.330820 -1.331050 2.000000 -2.000000 0.000000 95.917000 173.113998 0.393771 43.896900 -0.313365 0.094851 -179.916000 -179.895004 2.101760 -2.000000 2.000000 0.000000 -95.488403 174.302002 6.078050 -42.412498 0.315788 0.092214 -0.080221 0.069955 -162.770996 -17.804960 4.422343 -6.991646 63.395206 1.194490 3.955479 -16.402485 7.912676 1.359179 -18.516026 9.216484 -0.381582 33.041656 -2.039394 -2.702579 -23.119869 5.809506 1.278816 
0.626733 50.464634 16.346603 3.456440 -4.172110 30.343901 -20.395000 1.161350 -0.379567 14.936300 4.159670 -0.232832 29.922199 3.569770 -4.169860 19.284000 4.378590 -1.300910 2.000000 -2.000000 0.000000 96.092697 172.929993 -0.124245 43.496498 -0.314025 0.094160 -179.914001 -179.891998 0.978719 -2.000000 2.000000 0.000000 -95.458900 173.725006 5.846110 -42.080502 0.316320 0.091627 -0.080019 0.069537 -162.604996 -18.906567 3.999303 -8.767733 63.219200 1.194200 3.952083 -15.127563 7.056033 1.026520 -18.583076 9.005091 0.084501 32.727528 -2.047903 -2.692585 -22.459557 5.832407 1.263236 
